<svg width="56" height="56" viewBox="0 0 56 56" fill="none" xmlns="http://www.w3.org/2000/svg">
<rect width="56" height="56" fill="#161A2B"/>
<path fill-rule="evenodd" clip-rule="evenodd" d="M18.4746 19.1499C17.8374 19.1499 17.3496 19.6377 17.3496 20.2749V34.8999C17.3496 35.7246 18.0249 36.3999 18.8496 36.3999C18.8496 36.3999 36.6996 36.3999 36.9996 36.3999C38.3496 36.3999 38.3496 35.7999 38.3496 35.1999V23.6499V22.8999V22.5249C38.3496 21.8877 37.8618 21.3999 37.2246 21.3999H27.7368C27.4365 21.3999 27.1743 21.2871 26.9487 21.0615L25.563 19.6758C25.2246 19.3374 24.7368 19.1499 24.2505 19.1499H18.4746ZM18.4746 19.8999H24.2505C24.5493 19.8999 24.8115 20.0127 25.0371 20.2383L26.4243 21.624C26.7612 21.9624 27.249 22.1499 27.7368 22.1499H37.2246C37.4502 22.1499 37.5996 22.2993 37.5996 22.5249V31.8999H22.9746C22.7675 31.8999 22.5996 32.0678 22.5996 32.2749C22.5996 32.482 22.7675 32.6499 22.9746 32.6499H37.5996V34.8999V35.6499H18.8496C18.4365 35.6499 18.0996 35.313 18.0996 34.8999V32.6499V31.8999V20.2749C18.0996 20.0493 18.249 19.8999 18.4746 19.8999ZM20.7246 24.3999C20.499 24.3999 20.3496 24.5493 20.3496 24.7749C20.3496 25.0005 20.499 25.1499 20.7246 25.1499H26.3496C26.5752 25.1499 26.7246 25.0005 26.7246 24.7749C26.7246 24.5493 26.5752 24.3999 26.3496 24.3999H20.7246ZM20.7246 25.8999C20.499 25.8999 20.3496 26.0493 20.3496 26.2749C20.3496 26.5005 20.499 26.6499 20.7246 26.6499H24.0246C24.2502 26.6499 24.3996 26.5005 24.3996 26.2749C24.3996 26.0493 24.2502 25.8999 24.0246 25.8999H20.7246Z" fill="white"/>
</svg>
