<svg width="56" height="56" viewBox="0 0 56 56" fill="none" xmlns="http://www.w3.org/2000/svg">
<rect width="56" height="56" fill="#161A2B"/>
<path d="M26.0799 17.4399C21.578 17.4399 17.9199 21.0981 17.9199 25.5999C17.9199 30.1018 21.578 33.7599 26.0799 33.7599C27.8612 33.7599 29.5074 33.1862 30.8499 32.2149L37.1649 38.5149L38.5149 37.1649L32.2749 30.9099C33.5012 29.4812 34.2399 27.6268 34.2399 25.5999C34.2399 21.0981 30.5818 17.4399 26.0799 17.4399ZM26.0799 18.3999C30.0624 18.3999 33.2799 21.6174 33.2799 25.5999C33.2799 29.5824 30.0624 32.7999 26.0799 32.7999C22.0974 32.7999 18.8799 29.5824 18.8799 25.5999C18.8799 21.6174 22.0974 18.3999 26.0799 18.3999Z" fill="white"/>
<path fill-rule="evenodd" clip-rule="evenodd" d="M27.8664 22.5099L24.0906 25.1258L25.56 25.976C25.7675 26.0961 25.8281 26.3796 25.6952 26.6091L24.3712 28.8975L28.169 26.3203L26.6664 25.4509C26.4589 25.3308 26.3983 25.0473 26.5312 24.8177L27.8664 22.5099ZM28.2318 21.6103C28.5557 21.3859 28.9113 21.7443 28.71 22.0922L27.0302 24.9955L28.7084 25.9665C28.9355 26.0979 28.9256 26.4497 28.6904 26.6093L24.0112 29.7846C23.6872 30.0045 23.336 29.6466 23.5362 29.3005L25.1962 26.4314L23.5541 25.4813C23.3284 25.3507 23.3364 25.0018 23.5689 24.8407L28.2318 21.6103Z" fill="white"/>
</svg>
